<?xml version="1.0" encoding="UTF-8" standalone="no"?>
<svg
   width="22"
   height="18"
   fill="currentColor"
   class="bi bi-building-gear"
   viewBox="0 0 22 18"
   version="1.1"
   id="svg2"
   sodipodi:docname="building-gear.svg"
   inkscape:version="1.3.2 (091e20ef0f, 2023-11-25, custom)"
   xmlns:inkscape="http://www.inkscape.org/namespaces/inkscape"
   xmlns:sodipodi="http://sodipodi.sourceforge.net/DTD/sodipodi-0.dtd"
   xmlns="http://www.w3.org/2000/svg"
   xmlns:svg="http://www.w3.org/2000/svg">
  <sodipodi:namedview
     id="namedview1"
     pagecolor="#ffffff"
     bordercolor="#000000"
     borderopacity="0.25"
     inkscape:showpageshadow="2"
     inkscape:pageopacity="0.0"
     inkscape:pagecheckerboard="0"
     inkscape:deskcolor="#d1d1d1"
     inkscape:zoom="44.388889"
     inkscape:cx="11.005006"
     inkscape:cy="9"
     inkscape:window-width="1920"
     inkscape:window-height="1012"
     inkscape:window-x="0"
     inkscape:window-y="32"
     inkscape:window-maximized="1"
     inkscape:current-layer="svg2" />
  <defs
     id="defs2" />
  <path
     d="m 4.4674813,1.7330697 a 1,1 0 0 1 1,-1.00000005 H 15.467482 a 1,1 0 0 1 1,1.00000005 v 6.5 a 0.5,0.5 0 0 1 -1,0 v -6.5 H 5.4674813 V 15.73307 h 3 v -2.5 a 0.5,0.5 0 0 1 0.5,-0.5 h 1.5000007 v 4 H 5.4674813 a 1,1 0 0 1 -1,-1 z"
     id="path1"
     style="fill:#00b269;fill-opacity:1" />
  <path
     d="m 6.8921259,2.6063438 a 0.5,0.5 0 0 0 -0.5,0.5 v 1 a 0.5,0.5 0 0 0 0.5,0.5 h 1 a 0.5,0.5 0 0 0 0.5,-0.5 v -1 a 0.5,0.5 0 0 0 -0.5,-0.5 z m 3,0 a 0.5,0.5 0 0 0 -0.5,0.5 v 1 a 0.5,0.5 0 0 0 0.5,0.5 h 1.0000001 a 0.5,0.5 0 0 0 0.5,-0.5 v -1 a 0.5,0.5 0 0 0 -0.5,-0.5 z m 3.0000001,0 a 0.5,0.5 0 0 0 -0.5,0.5 v 1 a 0.5,0.5 0 0 0 0.5,0.5 h 1 a 0.5,0.5 0 0 0 0.5,-0.5 v -1 a 0.5,0.5 0 0 0 -0.5,-0.5 z m -6.0000001,3 a 0.5,0.5 0 0 0 -0.5,0.5 v 1 a 0.5,0.5 0 0 0 0.5,0.5 h 1 a 0.5,0.5 0 0 0 0.5,-0.5 v -1 a 0.5,0.5 0 0 0 -0.5,-0.5 z m 3,0 a 0.5,0.5 0 0 0 -0.5,0.5 v 1 a 0.5,0.5 0 0 0 0.5,0.5 h 1.0000001 a 0.5,0.5 0 0 0 0.5,-0.5 v -1 a 0.5,0.5 0 0 0 -0.5,-0.5 z m 3.0000001,0 a 0.5,0.5 0 0 0 -0.5,0.5 v 1 a 0.5,0.5 0 0 0 0.5,0.5 h 1 a 0.5,0.5 0 0 0 0.5,-0.5 v -1 a 0.5,0.5 0 0 0 -0.5,-0.5 z m -6.0000001,3 a 0.5,0.5 0 0 0 -0.5,0.5 v 1.0000002 a 0.5,0.5 0 0 0 0.5,0.5 h 1 a 0.5,0.5 0 0 0 0.5,-0.5 V 9.1063438 a 0.5,0.5 0 0 0 -0.5,-0.5 z m 3,0 a 0.5,0.5 0 0 0 -0.5,0.5 v 1.0000002 a 0.5,0.5 0 0 0 0.5,0.5 h 1.0000001 a 0.5,0.5 0 0 0 0.5,-0.5 V 9.1063438 a 0.5,0.5 0 0 0 -0.5,-0.5 z m 4.3860001,1.4600002 c 0.18,-0.6130002 1.048,-0.6130002 1.229,0 l 0.043,0.148 a 0.64,0.64 0 0 0 0.921,0.382 l 0.136,-0.074 c 0.561,-0.306 1.175,0.308 0.87,0.869 l -0.075,0.136 a 0.64,0.64 0 0 0 0.382,0.92 l 0.149,0.045 c 0.612,0.18 0.612,1.048 0,1.229 l -0.15,0.043 a 0.64,0.64 0 0 0 -0.38,0.921 l 0.074,0.136 c 0.305,0.561 -0.309,1.175 -0.87,0.87 l -0.136,-0.075 a 0.64,0.64 0 0 0 -0.92,0.382 l -0.045,0.149 c -0.18,0.612 -1.048,0.612 -1.229,0 l -0.043,-0.15 a 0.64,0.64 0 0 0 -0.921,-0.38 l -0.136,0.074 c -0.561,0.305 -1.175,-0.309 -0.87,-0.87 l 0.075,-0.136 a 0.64,0.64 0 0 0 -0.382,-0.92 l -0.148,-0.045 c -0.613,-0.18 -0.613,-1.048 0,-1.229 l 0.148,-0.043 a 0.64,0.64 0 0 0 0.382,-0.921 l -0.074,-0.136 c -0.306,-0.561 0.308,-1.175 0.869,-0.87 l 0.136,0.075 a 0.64,0.64 0 0 0 0.92,-0.382 z m 2.114,3.04 a 1.5,1.5 0 1 0 -3,0 1.5,1.5 0 0 0 3,0"
     id="path2"
     style="fill:#00b269;fill-opacity:1" />
</svg>
