<svg width="21" height="21" viewBox="0 0 21 21" fill="none" xmlns="http://www.w3.org/2000/svg">
<g id="Compras">
<g id="Group">
<g id="Group_2">
<path id="Vector" d="M12.484 3.72355V2.08301H5.92188V7.00463H12.484V11.9262H5.92188V10.2857" stroke="#00B269" stroke-width="0.8" stroke-miterlimit="10"/>
<path id="Vector_2" d="M9.20312 0.442383V13.5667" stroke="#00B269" stroke-width="0.8" stroke-miterlimit="10"/>
</g>
<g id="Group_3">
<path id="Vector_3" d="M1 5.36417L2.64054 15.2074H17.4054V5.36417L20.6865 3.72363" stroke="#00B269" stroke-width="0.8" stroke-miterlimit="10"/>
<path id="Vector_4" d="M17.4047 19.8113C18.1351 19.8113 18.7273 19.2191 18.7273 18.4887C18.7273 17.7582 18.1351 17.166 17.4047 17.166C16.6742 17.166 16.082 17.7582 16.082 18.4887C16.082 19.2191 16.6742 19.8113 17.4047 19.8113Z" stroke="#00B269" stroke-width="0.8" stroke-miterlimit="10"/>
<path id="Vector_5" d="M5.92225 19.8113C6.65272 19.8113 7.24489 19.2191 7.24489 18.4887C7.24489 17.7582 6.65272 17.166 5.92225 17.166C5.19178 17.166 4.59961 17.7582 4.59961 18.4887C4.59961 19.2191 5.19178 19.8113 5.92225 19.8113Z" stroke="#00B269" stroke-width="0.8" stroke-miterlimit="10"/>
</g>
</g>
</g>
</svg>
