<?xml version="1.0" encoding="UTF-8" standalone="no"?>
<svg
   width="20.426001"
   height="16.219999"
   fill="currentColor"
   class="bi bi-gear"
   viewBox="0 0 20.426001 16.219999"
   version="1.1"
   id="svg2"
   xmlns="http://www.w3.org/2000/svg"
   xmlns:svg="http://www.w3.org/2000/svg">
  <defs
     id="defs2" />
  <path
     d="m 9.834475,4.6263988 a 3.2460003,3.2460003 0 1 0 0,6.4920002 3.2460003,3.2460003 0 0 0 0,-6.4920002 z m -2.2460001,3.246 a 2.2460001,2.2460001 0 1 1 4.4920001,0 2.2460001,2.2460001 0 0 1 -4.4920001,0 z"
     id="path1"
     style="fill:#00b269;fill-opacity:1" />
  <path
     d="m 11.5939,1.3954396 c -0.527,-1.79000003 -3.0650003,-1.79000003 -3.5920003,0 l -0.094,0.319 a 0.873,0.873 0 0 1 -1.255,0.52 l -0.292,-0.16 c -1.64,-0.892 -3.433,0.902 -2.54,2.541 l 0.159,0.292 a 0.873,0.873 0 0 1 -0.52,1.255 l -0.319,0.094 c -1.79,0.527 -1.79,3.0650004 0,3.5920004 l 0.319,0.094 a 0.873,0.873 0 0 1 0.52,1.255 l -0.16,0.292 c -0.892,1.64 0.901,3.434 2.541,2.54 l 0.292,-0.159 a 0.873,0.873 0 0 1 1.255,0.52 l 0.094,0.319 c 0.527,1.79 3.0650003,1.79 3.5920003,0 l 0.094,-0.319 a 0.873,0.873 0 0 1 1.255,-0.52 l 0.292,0.16 c 1.64,0.893 3.434,-0.902 2.54,-2.541 l -0.159,-0.292 a 0.873,0.873 0 0 1 0.52,-1.255 l 0.319,-0.094 c 1.79,-0.527 1.79,-3.0650004 0,-3.5920004 l -0.319,-0.094 a 0.873,0.873 0 0 1 -0.52,-1.255 l 0.16,-0.292 c 0.893,-1.64 -0.902,-3.433 -2.541,-2.54 l -0.292,0.159 a 0.873,0.873 0 0 1 -1.255,-0.52 z m -2.6330003,0.283 c 0.246,-0.83500001 1.4280003,-0.83500001 1.6740003,0 l 0.094,0.319 a 1.873,1.873 0 0 0 2.693,1.115 l 0.291,-0.16 c 0.764,-0.415 1.6,0.42 1.184,1.185 l -0.159,0.292 a 1.873,1.873 0 0 0 1.116,2.692 l 0.318,0.094 c 0.835,0.246 0.835,1.428 0,1.674 l -0.319,0.094 a 1.873,1.873 0 0 0 -1.115,2.6930004 l 0.16,0.291 c 0.415,0.764 -0.42,1.6 -1.185,1.184 l -0.291,-0.159 a 1.873,1.873 0 0 0 -2.693,1.116 l -0.094,0.318 c -0.246,0.835 -1.4280003,0.835 -1.6740003,0 l -0.094,-0.319 a 1.873,1.873 0 0 0 -2.692,-1.115 l -0.292,0.16 c -0.764,0.415 -1.6,-0.42 -1.184,-1.185 l 0.159,-0.291 a 1.873,1.873 0 0 0 -1.115,-2.6940004 l -0.319,-0.094 c -0.835,-0.246 -0.835,-1.428 0,-1.674 l 0.319,-0.094 a 1.873,1.873 0 0 0 1.115,-2.691 l -0.16,-0.292 c -0.415,-0.764 0.42,-1.6 1.185,-1.184 l 0.292,0.159 a 1.873,1.873 0 0 0 2.692,-1.115 z"
     id="path2"
     style="fill:#00b269;fill-opacity:1" />
</svg>
