<?xml version="1.0" encoding="UTF-8" standalone="no"?>
<svg
   width="21"
   height="20"
   fill="currentColor"
   class="bi bi-person-add"
   viewBox="0 0 21 20"
   version="1.1"
   id="svg2"
   xmlns="http://www.w3.org/2000/svg"
   xmlns:svg="http://www.w3.org/2000/svg">
  <defs
     id="defs2">
    <linearGradient
       id="swatch17">
      <stop
         style="stop-color:#000000;stop-opacity:1;"
         offset="0"
         id="stop17" />
    </linearGradient>
  </defs>
  <path
     style="fill:#00b269;fill-opacity:1"
     d="m 8.4051236,4.0919037 a 3.0000001,3.0000001 0 1 1 -6.0000001,0 3.0000001,3.0000001 0 0 1 6.0000001,0 z m -3.0000007,2 a 2,2 0 1 0 0,-4 2,2 0 0 0 0,4 z"
     id="path19" />
  <path
     style="fill:#00b269;fill-opacity:1"
     d="m 20.590448,4.2726442 a 3.0000001,3.0000001 0 1 1 -6,0 3.0000001,3.0000001 0 0 1 6,0 z m -3.000001,2 a 2,2 0 1 0 0,-4 2,2 0 0 0 0,4 z"
     id="path19-7" />
  <path
     style="fill:#00b269;fill-opacity:1"
     d="m 13.351715,10.11299 a 3.0000005,3.0000005 0 1 1 -6.000001,0 3.0000005,3.0000005 0 0 1 6.000001,0 z m -3.000001,2 a 2.0000002,2.0000002 0 1 0 0,-4.0000003 2.0000002,2.0000002 0 0 0 0,4.0000003 z"
     id="path19-1" />
  <path
     style="fill:#00b269;fill-opacity:1;stroke-width:0.861323"
     d="m 14.859255,19.605673 a 3.0379975,2.9914486 0 1 0 0,-5.982897 3.0379975,2.9914486 0 0 0 0,5.982897 z m 0.434,-4.273497 v 0.854699 h 0.867999 a 0.43399984,0.42735 0 0 1 0,0.8547 h -0.867999 v 0.854699 a 0.43399998,0.42735015 0 0 1 -0.867999,0 v -0.854699 h -0.868 a 0.43399984,0.42735 0 0 1 0,-0.8547 h 0.868 v -0.854699 a 0.43399998,0.42735015 0 0 1 0.867999,0 z"
     id="path1" />
  <path
     d="m 6.4092634,12.851804 a 4.474,4.474 0 0 1 -0.229,-1.004 h -5.027 c 0.001,-0.246 0.154,-0.986 0.832,-1.664 0.652,-0.652 1.879,-1.332 4.168,-1.332 0.26,0 0.507,0.009 0.74,0.025 0.226,-0.341 0.496,-0.65 0.804,-0.918 -0.467,-0.069 -0.98,-0.107 -1.544,-0.107 -5,0 -5.99999999,3 -5.99999999,4 0,1 0.99999999,1 0.99999999,1 z"
     id="path2"
     style="fill:#00b269;fill-opacity:1" />
  <path
     d="m 11.308136,18.909445 a 4.474,4.474 0 0 1 -0.229,-1.004 H 6.0521364 c 10e-4,-0.246 0.154,-0.986 0.832,-1.664 0.652,-0.652 1.879,-1.332 4.1679996,-1.332 0.26,0 0.507,0.009 0.74,0.025 0.226,-0.341 0.496,-0.65 0.804,-0.918 -0.467,-0.069 -0.98,-0.107 -1.544,-0.107 -4.9999996,0 -5.9999996,3 -5.9999996,4 0,1 1,1 1,1 z"
     id="path2-7"
     style="fill:#00b269;fill-opacity:1" />
  <path
     d="m 19.645186,12.917309 a 4.474,4.474 0 0 1 -0.229,-1.004 h -5.027 c 10e-4,-0.246 0.154,-0.986 0.832,-1.664001 0.652,-0.6519999 1.879,-1.3319999 4.168,-1.3319999 0.26,0 0.507,0.009 0.74,0.025 0.226,-0.341 0.496,-0.65 0.804,-0.918 -0.467,-0.069 -0.98,-0.107 -1.544,-0.107 -5,0 -6,3.0000009 -6,4.0000009 0,1 1,1 1,1 z"
     id="path2-7-5"
     style="fill:#00b269;fill-opacity:1" />
  <rect
     style="fill:#000000;fill-opacity:0"
     id="rect1"
     width="6.5366564"
     height="7.4036412"
     x="8.2669992"
     y="7.593658" />
  <rect
     style="opacity:0;fill:#ffffff;fill-opacity:0.290429"
     id="rect7"
     width="6.9237165"
     height="6.3432102"
     x="5.6956959"
     y="0.60454756" />
  <path
     style="opacity:0;fill:#ffffff;fill-opacity:0.290429"
     d="M 7.6879508,11.42615 16.788293,1.205754"
     id="path7" />
</svg>
