<svg width="21" height="20" viewBox="0 0 21 20" fill="none" xmlns="http://www.w3.org/2000/svg">
<path d="M8.60938 2.81201H5.17188C4.75747 2.81201 4.36005 2.97663 4.06702 3.26966C3.774 3.56268 3.60938 3.96011 3.60938 4.37451V7.81201C3.60938 8.22641 3.774 8.62384 4.06702 8.91687C4.36005 9.20989 4.75747 9.37451 5.17188 9.37451H8.60938C9.02378 9.37451 9.4212 9.20989 9.71423 8.91687C10.0073 8.62384 10.1719 8.22641 10.1719 7.81201V4.37451C10.1719 3.96011 10.0073 3.56268 9.71423 3.26966C9.4212 2.97663 9.02378 2.81201 8.60938 2.81201ZM8.29688 7.49951H5.48438V4.68701H8.29688V7.49951ZM16.4219 2.81201H12.9844C12.57 2.81201 12.1725 2.97663 11.8795 3.26966C11.5865 3.56268 11.4219 3.96011 11.4219 4.37451V7.81201C11.4219 8.22641 11.5865 8.62384 11.8795 8.91687C12.1725 9.20989 12.57 9.37451 12.9844 9.37451H16.4219C16.8363 9.37451 17.2337 9.20989 17.5267 8.91687C17.8198 8.62384 17.9844 8.22641 17.9844 7.81201V4.37451C17.9844 3.96011 17.8198 3.56268 17.5267 3.26966C17.2337 2.97663 16.8363 2.81201 16.4219 2.81201ZM16.1094 7.49951H13.2969V4.68701H16.1094V7.49951ZM8.60938 10.6245H5.17188C4.75747 10.6245 4.36005 10.7891 4.06702 11.0822C3.774 11.3752 3.60938 11.7726 3.60938 12.187V15.6245C3.60938 16.0389 3.774 16.4363 4.06702 16.7294C4.36005 17.0224 4.75747 17.187 5.17188 17.187H8.60938C9.02378 17.187 9.4212 17.0224 9.71423 16.7294C10.0073 16.4363 10.1719 16.0389 10.1719 15.6245V12.187C10.1719 11.7726 10.0073 11.3752 9.71423 11.0822C9.4212 10.7891 9.02378 10.6245 8.60938 10.6245ZM8.29688 15.312H5.48438V12.4995H8.29688V15.312ZM16.4219 10.6245H12.9844C12.57 10.6245 12.1725 10.7891 11.8795 11.0822C11.5865 11.3752 11.4219 11.7726 11.4219 12.187V15.6245C11.4219 16.0389 11.5865 16.4363 11.8795 16.7294C12.1725 17.0224 12.57 17.187 12.9844 17.187H16.4219C16.8363 17.187 17.2337 17.0224 17.5267 16.7294C17.8198 16.4363 17.9844 16.0389 17.9844 15.6245V12.187C17.9844 11.7726 17.8198 11.3752 17.5267 11.0822C17.2337 10.7891 16.8363 10.6245 16.4219 10.6245ZM16.1094 15.312H13.2969V12.4995H16.1094V15.312Z" fill="#00B269"/>
</svg>
