<?xml version="1.0" encoding="UTF-8" standalone="no"?>
<svg
   width="20.426001"
   height="16.219999"
   fill="currentColor"
   class="bi bi-person-add"
   viewBox="0 0 20.426001 16.219999"
   version="1.1"
   id="svg2"
   xmlns="http://www.w3.org/2000/svg"
   xmlns:svg="http://www.w3.org/2000/svg">
  <defs
     id="defs2" />
  <path
     d="m 11.26,14.816 a 3.5,3.5 0 1 0 0,-7 3.5,3.5 0 0 0 0,7 z m 0.5,-5 v 1 h 1 a 0.5,0.5 0 0 1 0,1 h -1 v 1 a 0.5,0.5 0 0 1 -1,0 v -1 h -1 a 0.5,0.5 0 0 1 0,-1 h 1 v -1 a 0.5,0.5 0 0 1 1,0 z m -2,-6 a 3,3 0 1 1 -6,0 3,3 0 0 1 6,0 z m -3,2 a 2,2 0 1 0 0,-4 2,2 0 0 0 0,4 z"
     id="path1"
     style="fill:#00b269;fill-opacity:1" />
  <path
     d="M 7.016,12.816 A 4.474,4.474 0 0 1 6.787,11.812 H 1.76 C 1.761,11.566 1.914,10.826 2.592,10.148 3.244,9.496 4.471,8.816 6.76,8.816 7.02,8.816 7.267,8.825 7.5,8.841 7.726,8.5 7.996,8.191 8.304,7.923 7.837,7.854 7.324,7.816 6.76,7.816 c -5,0 -6.00000001,3 -6.00000001,4 0,1 1.00000001,1 1.00000001,1 z"
     id="path2"
     style="fill:#00b269;fill-opacity:1" />
</svg>
