<svg width="22" height="22" viewBox="0 0 22 22" fill="none" xmlns="http://www.w3.org/2000/svg">
<g id="Pendente">
<g id="Group">
<path id="Vector" d="M11 15.9941C11 18.7556 8.76142 20.9941 6 20.9941C3.23858 20.9941 1 18.7556 1 15.9941C1 13.2327 3.23858 10.9941 6 10.9941C8.76142 10.9941 11 13.2327 11 15.9941Z" stroke="#00B269" stroke-width="0.8" stroke-miterlimit="10" stroke-linecap="round" stroke-linejoin="round"/>
<path id="Vector_2" d="M6 20.9941H19.75C20.4403 20.9941 21 20.4345 21 19.7441V5.0776L16.8335 0.910808H7.25C6.55967 0.910808 6 1.47048 6 2.16081V10.9941" stroke="#00B269" stroke-width="0.8" stroke-miterlimit="10" stroke-linecap="round" stroke-linejoin="round"/>
<path id="Vector_3" d="M16.834 0.910971V5.07764H21.0007L16.834 0.910971Z" stroke="#00B269" stroke-width="0.8" stroke-miterlimit="10" stroke-linecap="round" stroke-linejoin="round"/>
<path id="Vector_4" d="M9.5 12.2441H18.0832" stroke="#00B269" stroke-width="0.8" stroke-miterlimit="10" stroke-linecap="square" stroke-linejoin="round"/>
<path id="Vector_5" d="M8.91602 8.49414H18.0827" stroke="#00B269" stroke-width="0.8" stroke-miterlimit="10" stroke-linecap="square" stroke-linejoin="round"/>
<path id="Vector_6" d="M11 15.9941H18.0833" stroke="#00B269" stroke-width="0.8" stroke-miterlimit="10" stroke-linecap="square" stroke-linejoin="round"/>
<path id="Vector_7" d="M6 13.4941V15.9941H7.66667" stroke="#00B269" stroke-width="0.8" stroke-miterlimit="10" stroke-linecap="square" stroke-linejoin="round"/>
</g>
</g>
</svg>
