<svg width="21" height="25" viewBox="0 0 21 25" fill="none" xmlns="http://www.w3.org/2000/svg">
<g id="Relato&#204;&#129;rios">
<g id="Group">
<g id="Group_2">
<path id="Vector" d="M10.7208 13.9828V8.38574H4.32227V13.9828" stroke="#00B269" stroke-width="0.8" stroke-miterlimit="10"/>
<path id="Vector_2" d="M7.51992 7.58721C8.40358 7.58721 9.11992 6.87086 9.11992 5.98721C9.11992 5.10355 8.40358 4.38721 7.51992 4.38721C6.63627 4.38721 5.91992 5.10355 5.91992 5.98721C5.91992 6.87086 6.63627 7.58721 7.51992 7.58721Z" stroke="#00B269" stroke-width="0.8" stroke-miterlimit="10"/>
</g>
<path id="Vector_3" d="M11.2773 4.57129H17.4976" stroke="#00B269" stroke-width="0.8" stroke-miterlimit="10"/>
<path id="Vector_4" d="M14.2363 7.59912H17.4972" stroke="#00B269" stroke-width="0.8" stroke-miterlimit="10"/>
<path id="Vector_5" d="M20.5652 1.12646H1V23.9526H20.5652V1.12646Z" stroke="#00B269" stroke-width="0.8" stroke-miterlimit="10"/>
<path id="Vector_6" d="M10.7819 21.6336C11.3021 21.6336 11.7239 21.2118 11.7239 20.6915C11.7239 20.1713 11.3021 19.7495 10.7819 19.7495C10.2616 19.7495 9.83984 20.1713 9.83984 20.6915C9.83984 21.2118 10.2616 21.6336 10.7819 21.6336Z" stroke="#00B269" stroke-width="0.8" stroke-miterlimit="10"/>
</g>
</g>
</svg>
