<?xml version="1.0" encoding="UTF-8" standalone="no"?>
<svg
   width="21"
   height="20"
   fill="currentColor"
   class="bi bi-sliders2"
   viewBox="0 0 21 20"
   version="1.1"
   id="svg1"
   xmlns="http://www.w3.org/2000/svg"
   xmlns:svg="http://www.w3.org/2000/svg">
  <defs
     id="defs1" />
  <path
     fill-rule="evenodd"
     d="m 12.999999,2.9999998 a 0.5,0.5 0 0 1 0.5,0.5 v 4 a 0.5,0.5 0 0 1 -1,0 v -1.5 H 4.0000005 a 0.5,0.5 0 0 1 0,-1 h 8.4999985 v -1.5 a 0.5,0.5 0 0 1 0.5,-0.5 m 1.5,2.5 a 0.5,0.5 0 0 1 0.5,-0.5 h 2 a 0.5,0.5 0 0 1 0,1 h -2 a 0.5,0.5 0 0 1 -0.5,-0.5 m -6.4999985,2 a 0.5,0.5 0 0 1 0.5,0.5 v 1.5 h 8.4999985 a 0.5000002,0.5000002 0 0 1 0,1.0000002 H 8.5000005 V 12 a 0.5,0.5 0 0 1 -1,0 V 7.9999998 a 0.5,0.5 0 0 1 0.5,-0.5 m -4.5,2.5 a 0.5,0.5 0 0 1 0.5,-0.5 h 2 a 0.5000002,0.5000002 0 0 1 0,1.0000002 h -2 a 0.5,0.5 0 0 1 -0.5,-0.5000002 M 12.999999,12 a 0.5,0.5 0 0 1 0.5,0.5 v 4 a 0.5,0.5 0 0 1 -1,0 V 15 H 4.0000005 a 0.5,0.5 0 0 1 0,-1 h 8.4999985 v -1.5 a 0.5,0.5 0 0 1 0.5,-0.5 m 1.5,2.5 a 0.5,0.5 0 0 1 0.5,-0.5 h 2 a 0.5,0.5 0 0 1 0,1 h -2 a 0.5,0.5 0 0 1 -0.5,-0.5"
     id="path1"
     style="fill:#00b269;fill-opacity:1" />
</svg>
