<svg width="16" height="16" viewBox="0 0 16 16" fill="none" xmlns="http://www.w3.org/2000/svg">
<g id="System_Icons_Luzes">
<g id="Zoom_In">
<path id="Vector" d="M7.41857 14.8377C3.32808 14.8377 0 11.5096 0 7.41857C0 3.32757 3.32808 0 7.41857 0C11.5091 0 14.8371 3.32808 14.8371 7.41857C14.8371 11.5091 11.5091 14.8371 7.41857 14.8371V14.8377ZM7.41857 0.322987C3.50577 0.322481 0.322481 3.50577 0.322481 7.41857C0.322481 11.3314 3.50577 14.5147 7.41857 14.5147C11.3314 14.5147 14.5147 11.3314 14.5147 7.41857C14.5147 3.50577 11.3314 0.322481 7.41857 0.322481V0.322987Z" fill="#D8F3E6"/>
<path id="Vector_2" d="M12.6636 12.436L12.4355 12.6641L15.7715 16L15.9995 15.772L12.6636 12.436Z" fill="#D8F3E6"/>
<path id="Vector_3" d="M7.58029 4.99951H7.25781V9.83773H7.58029V4.99951Z" fill="#D8F3E6"/>
<path id="Vector_4" d="M9.83822 7.25781H5V7.58029H9.83822V7.25781Z" fill="#D8F3E6"/>
</g>
</g>
</svg>
