<svg width="68" height="12" viewBox="0 0 68 12" fill="none" xmlns="http://www.w3.org/2000/svg">
<path d="M0.328953 0.92H3.64695C4.72029 0.92 5.62562 1.144 6.36295 1.592C7.10962 2.03067 7.66495 2.628 8.02895 3.384C8.40229 4.14 8.58895 4.99867 8.58895 5.96C8.58895 6.92133 8.40229 7.78 8.02895 8.536C7.66495 9.292 7.10962 9.894 6.36295 10.342C5.62562 10.7807 4.72029 11 3.64695 11H0.328953V0.92ZM3.64695 9.88C4.86029 9.88 5.77029 9.52067 6.37695 8.802C6.99295 8.08333 7.30095 7.136 7.30095 5.96C7.30095 4.784 6.99295 3.83667 6.37695 3.118C5.77029 2.39933 4.86029 2.04 3.64695 2.04H1.56095V9.88H3.64695ZM14.529 10.09C13.969 10.8087 13.1943 11.168 12.205 11.168C11.3837 11.168 10.7397 10.9813 10.273 10.608C9.80633 10.2347 9.573 9.70733 9.573 9.026C9.573 8.40067 9.797 7.906 10.245 7.542C10.693 7.178 11.3417 6.91667 12.191 6.758L14.473 6.324V5.764C14.473 5.344 14.3377 5.04533 14.067 4.868C13.7963 4.68133 13.3997 4.588 12.877 4.588C12.3637 4.588 11.9297 4.69067 11.575 4.896C11.2203 5.10133 11.029 5.456 11.001 5.96H9.825C9.853 5.13867 10.1517 4.532 10.721 4.14C11.2997 3.748 12.0183 3.552 12.877 3.552C13.7917 3.552 14.4777 3.73867 14.935 4.112C15.3923 4.476 15.621 4.98933 15.621 5.652V11H14.529V10.09ZM10.791 8.998C10.791 9.35267 10.9123 9.63267 11.155 9.838C11.3977 10.034 11.7663 10.132 12.261 10.132C12.6343 10.132 12.989 10.062 13.325 9.922C13.661 9.77267 13.9363 9.54867 14.151 9.25C14.3657 8.942 14.473 8.564 14.473 8.116V7.318L12.359 7.752C11.8177 7.864 11.421 8.004 11.169 8.172C10.917 8.34 10.791 8.61533 10.791 8.998ZM17.1571 3.72H18.2771V4.938C18.5477 4.45267 18.8791 4.11667 19.2711 3.93C19.6631 3.734 20.1064 3.636 20.6011 3.636H21.1471V4.77H20.5731C19.0797 4.77 18.3331 5.54933 18.3331 7.108V11H17.1571V3.72ZM22.4071 0.92H23.6391V7.122L26.9291 3.72H28.4691L25.6551 6.562L28.7211 11H27.2791L24.8151 7.416L23.6391 8.62V11H22.4071V0.92ZM33.6482 3.09V11H32.4442V0.92H34.0402L37.4842 9.586L40.9282 0.92H42.5242V11H41.3202V3.09L38.0582 11H36.9102L33.6482 3.09ZM47.5424 11.168C46.8331 11.168 46.2078 11.0047 45.6664 10.678C45.1344 10.3513 44.7238 9.89867 44.4344 9.32C44.1544 8.74133 44.0144 8.088 44.0144 7.36C44.0144 6.632 44.1544 5.97867 44.4344 5.4C44.7238 4.82133 45.1344 4.36867 45.6664 4.042C46.2078 3.71533 46.8331 3.552 47.5424 3.552C48.2518 3.552 48.8724 3.71533 49.4044 4.042C49.9458 4.36867 50.3564 4.82133 50.6364 5.4C50.9258 5.97867 51.0704 6.632 51.0704 7.36C51.0704 8.088 50.9258 8.74133 50.6364 9.32C50.3564 9.89867 49.9458 10.3513 49.4044 10.678C48.8724 11.0047 48.2518 11.168 47.5424 11.168ZM45.2464 7.36C45.2464 8.19067 45.4424 8.858 45.8344 9.362C46.2264 9.85667 46.7958 10.104 47.5424 10.104C48.2891 10.104 48.8584 9.85667 49.2504 9.362C49.6424 8.858 49.8384 8.19067 49.8384 7.36C49.8384 6.52933 49.6424 5.86667 49.2504 5.372C48.8584 4.868 48.2891 4.616 47.5424 4.616C46.7958 4.616 46.2264 4.868 45.8344 5.372C45.4424 5.86667 45.2464 6.52933 45.2464 7.36ZM57.9875 11V9.88C57.7168 10.2907 57.3762 10.608 56.9655 10.832C56.5548 11.056 56.0742 11.168 55.5235 11.168C54.8142 11.168 54.2028 11.0047 53.6895 10.678C53.1855 10.3513 52.7982 9.90333 52.5275 9.334C52.2662 8.75533 52.1355 8.09733 52.1355 7.36C52.1355 6.62267 52.2662 5.96933 52.5275 5.4C52.7982 4.82133 53.1855 4.36867 53.6895 4.042C54.2028 3.71533 54.8142 3.552 55.5235 3.552C56.0555 3.552 56.5222 3.65933 56.9235 3.874C57.3342 4.07933 57.6702 4.37333 57.9315 4.756V0.92H59.1075V11H57.9875ZM53.3675 7.36C53.3675 8.19067 53.5635 8.858 53.9555 9.362C54.3475 9.85667 54.9168 10.104 55.6635 10.104C56.4102 10.104 56.9795 9.85667 57.3715 9.362C57.7635 8.858 57.9595 8.19067 57.9595 7.36C57.9595 6.52933 57.7635 5.86667 57.3715 5.372C56.9795 4.868 56.4102 4.616 55.6635 4.616C54.9168 4.616 54.3475 4.868 53.9555 5.372C53.5635 5.86667 53.3675 6.52933 53.3675 7.36ZM63.9047 11.168C63.2327 11.168 62.6354 11.0047 62.1127 10.678C61.5994 10.3513 61.2027 9.89867 60.9227 9.32C60.6427 8.74133 60.5027 8.088 60.5027 7.36C60.5027 6.632 60.6427 5.97867 60.9227 5.4C61.2027 4.82133 61.5994 4.36867 62.1127 4.042C62.6354 3.71533 63.2327 3.552 63.9047 3.552C64.5767 3.552 65.1694 3.71533 65.6827 4.042C66.2054 4.36867 66.6067 4.82133 66.8867 5.4C67.1667 5.97867 67.3067 6.632 67.3067 7.36V7.78H61.7487C61.814 8.48933 62.0334 9.054 62.4067 9.474C62.78 9.894 63.2794 10.104 63.9047 10.104C64.3807 10.104 64.796 9.98733 65.1507 9.754C65.5054 9.52067 65.7667 9.19867 65.9347 8.788H67.1527C66.9194 9.516 66.5134 10.0947 65.9347 10.524C65.3654 10.9533 64.6887 11.168 63.9047 11.168ZM66.0327 6.716C65.9394 6.072 65.7107 5.56333 65.3467 5.19C64.9827 4.80733 64.502 4.616 63.9047 4.616C63.3074 4.616 62.8267 4.80733 62.4627 5.19C62.0987 5.56333 61.87 6.072 61.7767 6.716H66.0327Z" fill="#BBEBD4"/>
</svg>
