<svg width="109" height="23" viewBox="0 0 109 23" fill="none" xmlns="http://www.w3.org/2000/svg">
<g id="Number_padr&#195;&#163;o">
<g id="Number">
<path id="Vector" d="M9.48213 6.2793C7.13295 6.2793 5.79445 7.07584 4.79702 8.24904L3.97537 9.319L3.40272 8.87958L4.72937 7.15396L4.72658 6.46065H0.523438V22.0714H4.804V14.0829C4.804 11.3822 6.08042 9.80237 8.29848 9.80237C10.5165 9.80237 11.4561 11.1995 11.4561 13.8423V22.0721H15.7366V13.4147C15.7366 8.07118 12.8525 6.27999 9.48144 6.27999L9.48213 6.2793Z" fill="#00B269"/>
<path id="Vector_2" d="M33.1397 6.45898V22.0697H28.8591L28.8494 20.2862C27.847 21.4999 26.5811 22.2511 24.3623 22.2511C21.1441 22.2511 18.1699 20.6406 18.1699 15.1136V6.45898H22.4505V14.5381C22.4505 17.3316 23.3621 18.698 25.4881 18.698C27.6141 18.698 28.8598 17.1482 28.8598 14.264V9.77002H27.0833L28.7461 6.45898H33.1404H33.1397Z" fill="#00B269"/>
<path id="Vector_3" d="M54.7921 6.27928C52.4234 6.27928 50.6015 7.2516 49.5092 8.91932C48.5369 6.94749 46.7457 6.24859 44.8318 6.27928C42.6311 6.30928 41.4224 7.13093 40.4933 8.2839C40.4605 8.32435 40.4305 8.36411 40.3977 8.40457V6.45994H36.1172V22.0707H40.3977V13.5668C40.3977 11.2281 41.6135 9.80096 43.4654 9.80096C45.3172 9.80096 46.1989 11.0167 46.1989 13.3533V22.0707H50.4794V13.5368C50.4794 11.1674 51.7252 9.80096 53.577 9.80096C55.4289 9.80096 56.2798 11.0167 56.2798 13.3533V22.0707H60.5632V13.1127C60.5632 8.10115 58.011 6.27928 54.7928 6.27928H54.7921Z" fill="#00B269"/>
<path id="Vector_4" d="M72.2543 6.27881C70.099 6.27881 68.5185 7.11791 67.4862 8.36364L67.496 7.16813L67.549 0.8125H63.2656V22.0709H67.4862L67.4785 21.0888L67.4709 19.8982L67.5113 19.9512C68.5136 21.2625 70.0084 22.2523 72.2243 22.2523C76.4449 22.2523 79.4818 19.064 79.4818 14.2359C79.4818 9.4078 76.4442 6.27951 72.2543 6.27951V6.27881ZM71.282 18.7592C68.9454 18.7592 67.4862 16.908 67.4862 14.2345C67.4862 11.561 68.9461 9.7705 71.282 9.7705C73.6179 9.7705 75.1406 11.5917 75.1406 14.2652C75.1406 16.9387 73.6207 18.7592 71.282 18.7592Z" fill="#00B269"/>
<path id="Vector_5" d="M97.0343 15.238C97.1271 14.7504 97.1571 14.2357 97.1571 13.7809C97.0943 9.19345 93.9367 6.2793 89.2613 6.2793C84.586 6.2793 81.2422 9.43688 81.2422 14.2957C81.2422 19.1545 84.3726 22.2521 89.5655 22.2521C93.726 22.2521 96.4289 19.8227 96.9136 16.7857H92.693C92.329 18.2428 91.1125 19.0038 89.382 19.0038C87.6515 19.0038 86.463 18.1898 85.9552 16.7781C85.8122 16.3812 85.7264 15.9362 85.7062 15.4493V15.2387H97.0336L97.0343 15.238ZM89.2913 9.46757C91.2332 9.46757 92.5396 10.5306 92.8437 12.4445H85.7997C86.041 10.5905 87.4402 9.46757 89.2913 9.46757Z" fill="#00B269"/>
<path id="Vector_6" d="M108.273 6.45996C106.148 6.45996 104.953 7.18118 104.118 8.29648C103.998 8.45691 103.926 8.53223 103.779 8.73591L103.295 9.36366L102.724 8.92423L103.781 7.55015L103.784 6.45996H99.498V22.0707H103.779V14.4163C103.779 12.0469 104.751 10.3464 107.301 10.3464H109.001V6.45996H108.273H108.273Z" fill="#00B269"/>
</g>
</g>
</svg>
