<svg width="21" height="20" viewBox="0 0 21 20" fill="none" xmlns="http://www.w3.org/2000/svg">
<path d="M19.0948 10.8933C18.9713 10.7696 18.8165 10.6818 18.6469 10.6394C18.4772 10.597 18.2993 10.6016 18.1321 10.6527C16.964 11.0052 15.7222 11.0344 14.5389 10.7371C13.3556 10.4398 12.2751 9.82715 11.4126 8.96444C10.55 8.10173 9.93762 7.02125 9.64071 5.83809C9.3438 4.65494 9.37346 3.41342 9.72652 2.24578C9.77803 2.07855 9.78296 1.90043 9.74079 1.7306C9.69861 1.56077 9.61093 1.40565 9.48717 1.28192C9.36341 1.15818 9.20825 1.07052 9.03838 1.02836C8.86851 0.986196 8.69036 0.991127 8.52309 1.04262C6.7664 1.58244 5.2248 2.66252 4.11773 4.12913C3.14961 5.41562 2.55923 6.94639 2.41284 8.54966C2.26644 10.1529 2.56982 11.7653 3.28894 13.2058C4.00805 14.6462 5.11444 15.8579 6.48397 16.7047C7.8535 17.5516 9.43197 18.0001 11.0423 18C12.9223 18.0055 14.7523 17.3943 16.2515 16.2602C17.7177 15.1523 18.7969 13.6102 19.3355 11.8534C19.3861 11.6866 19.3905 11.5092 19.3481 11.3401C19.3057 11.171 19.2181 11.0165 19.0948 10.8933ZM15.093 14.7226C13.7953 15.6993 12.1884 16.1745 10.5681 16.0608C8.94778 15.9472 7.42303 15.2522 6.27447 14.1039C5.1259 12.9556 4.43082 11.4312 4.31713 9.81126C4.20344 8.19129 4.67879 6.58478 5.65572 5.28737C6.16977 4.60756 6.80684 4.03021 7.53387 3.5853C7.51943 3.79064 7.51221 3.99678 7.51221 4.20372C7.51476 6.50045 8.42846 8.70237 10.0529 10.3264C11.6772 11.9504 13.8797 12.8639 16.1769 12.8665C16.3839 12.8665 16.5901 12.8593 16.7955 12.8448C16.3507 13.5718 15.7732 14.2088 15.093 14.7226Z" fill="#00B269"/>
</svg>
