<?xml version="1.0" encoding="utf-8"?>
<svg width="77" height="12" viewBox="0 0 77 12" fill="none" xmlns="http://www.w3.org/2000/svg">
  <path d="M 7.251 2.871 L 4.927 12.724 L 3.555 12.724 L 0.629 0.92 L 1.917 0.92 L 4.241 10.592 L 6.565 0.92 L 7.937 0.92 L 10.261 10.592 L 12.585 0.92 L 13.873 0.92 L 10.947 12.724 L 9.575 12.724 L 7.251 2.871 Z M 14.999 0.92 L 16.175 0.92 L 16.175 5.346 C 16.744 4.45 17.505 4.002 18.457 4.002 C 19.045 4.002 19.53 4.149 19.913 4.445 C 20.305 4.739 20.59 5.128 20.767 5.609 C 20.954 6.079 21.047 6.581 21.047 7.116 L 21.047 12.724 L 19.885 12.724 L 19.885 7.248 C 19.885 6.636 19.745 6.15 19.465 5.789 C 19.185 5.429 18.774 5.248 18.233 5.248 C 17.981 5.248 17.696 5.313 17.379 5.445 C 17.071 5.576 16.791 5.843 16.539 6.248 C 16.296 6.653 16.175 7.221 16.175 7.953 L 16.175 12.724 L 14.999 12.724 L 14.999 0.92 Z M 22.75 4.198 L 23.926 4.198 L 23.926 12.724 L 22.75 12.724 L 22.75 4.198 Z M 22.75 0.92 L 23.926 0.92 L 23.926 2.592 L 22.75 2.592 L 22.75 0.92 Z M 27.54 1.576 L 27.54 4.198 L 29.5 4.198 L 29.5 5.411 L 27.54 5.411 L 27.54 10.625 C 27.54 10.931 27.6 11.155 27.722 11.297 C 27.843 11.44 28.034 11.511 28.296 11.511 L 29.5 11.511 L 29.5 12.724 L 28.072 12.724 C 27.456 12.724 27.017 12.57 26.756 12.264 C 26.494 11.947 26.364 11.456 26.364 10.788 L 26.364 5.411 L 25.02 5.411 L 25.02 4.198 L 26.364 4.198 L 26.364 1.576 L 27.54 1.576 Z M 33.829 12.92 C 33.157 12.92 32.559 12.729 32.036 12.346 C 31.523 11.963 31.127 11.434 30.847 10.756 C 30.567 10.078 30.427 9.313 30.427 8.461 C 30.427 7.608 30.567 6.844 30.847 6.166 C 31.127 5.489 31.523 4.959 32.036 4.576 C 32.559 4.193 33.157 4.002 33.829 4.002 C 34.501 4.002 35.093 4.193 35.607 4.576 C 36.129 4.959 36.531 5.489 36.811 6.166 C 37.091 6.844 37.231 7.608 37.231 8.461 L 37.231 8.952 L 31.673 8.952 C 31.738 9.784 31.957 10.445 32.331 10.937 C 32.704 11.429 33.203 11.674 33.829 11.674 C 34.305 11.674 34.72 11.538 35.075 11.264 C 35.429 10.991 35.691 10.614 35.859 10.133 L 37.077 10.133 C 36.843 10.986 36.437 11.663 35.859 12.166 C 35.289 12.669 34.613 12.92 33.829 12.92 Z M 35.957 7.707 C 35.863 6.953 35.635 6.357 35.271 5.92 C 34.907 5.472 34.426 5.248 33.829 5.248 C 33.231 5.248 32.751 5.472 32.386 5.92 C 32.023 6.357 31.794 6.953 31.7 7.707 L 35.957 7.707 Z M 42.633 3.461 L 42.633 12.724 L 41.429 12.724 L 41.429 0.92 L 43.025 0.92 L 46.469 11.068 L 49.913 0.92 L 51.509 0.92 L 51.509 12.724 L 50.305 12.724 L 50.305 3.461 L 47.043 12.724 L 45.895 12.724 L 42.633 3.461 Z M 56.527 12.92 C 55.818 12.92 55.192 12.729 54.651 12.346 C 54.119 11.963 53.708 11.434 53.419 10.756 C 53.139 10.078 52.999 9.313 52.999 8.461 C 52.999 7.608 53.139 6.844 53.419 6.166 C 53.708 5.489 54.119 4.959 54.651 4.576 C 55.192 4.193 55.818 4.002 56.527 4.002 C 57.236 4.002 57.857 4.193 58.389 4.576 C 58.93 4.959 59.341 5.489 59.621 6.166 C 59.91 6.844 60.055 7.608 60.055 8.461 C 60.055 9.313 59.91 10.078 59.621 10.756 C 59.341 11.434 58.93 11.963 58.389 12.346 C 57.857 12.729 57.236 12.92 56.527 12.92 Z M 54.231 8.461 C 54.231 9.433 54.427 10.215 54.819 10.805 C 55.211 11.384 55.78 11.674 56.527 11.674 C 57.274 11.674 57.843 11.384 58.235 10.805 C 58.627 10.215 58.823 9.433 58.823 8.461 C 58.823 7.488 58.627 6.713 58.235 6.133 C 57.843 5.543 57.274 5.248 56.527 5.248 C 55.78 5.248 55.211 5.543 54.819 6.133 C 54.427 6.713 54.231 7.488 54.231 8.461 Z M 66.972 12.724 L 66.972 11.411 C 66.701 11.892 66.361 12.264 65.95 12.526 C 65.539 12.789 65.059 12.92 64.508 12.92 C 63.799 12.92 63.187 12.729 62.674 12.346 C 62.17 11.963 61.783 11.44 61.512 10.772 C 61.251 10.095 61.12 9.324 61.12 8.461 C 61.12 7.597 61.251 6.833 61.512 6.166 C 61.783 5.489 62.17 4.959 62.674 4.576 C 63.187 4.193 63.799 4.002 64.508 4.002 C 65.04 4.002 65.507 4.127 65.908 4.379 C 66.319 4.619 66.655 4.964 66.916 5.411 L 66.916 0.92 L 68.092 0.92 L 68.092 12.724 L 66.972 12.724 Z M 62.352 8.461 C 62.352 9.433 62.548 10.215 62.94 10.805 C 63.332 11.384 63.901 11.674 64.648 11.674 C 65.395 11.674 65.964 11.384 66.356 10.805 C 66.748 10.215 66.944 9.433 66.944 8.461 C 66.944 7.488 66.748 6.713 66.356 6.133 C 65.964 5.543 65.395 5.248 64.648 5.248 C 63.901 5.248 63.332 5.543 62.94 6.133 C 62.548 6.713 62.352 7.488 62.352 8.461 Z M 72.889 12.92 C 72.217 12.92 71.62 12.729 71.097 12.346 C 70.584 11.963 70.187 11.434 69.907 10.756 C 69.627 10.078 69.487 9.313 69.487 8.461 C 69.487 7.608 69.627 6.844 69.907 6.166 C 70.187 5.489 70.584 4.959 71.097 4.576 C 71.62 4.193 72.217 4.002 72.889 4.002 C 73.561 4.002 74.154 4.193 74.667 4.576 C 75.19 4.959 75.591 5.489 75.871 6.166 C 76.151 6.844 76.291 7.608 76.291 8.461 L 76.291 8.952 L 70.733 8.952 C 70.798 9.784 71.018 10.445 71.391 10.937 C 71.764 11.429 72.264 11.674 72.889 11.674 C 73.365 11.674 73.78 11.538 74.135 11.264 C 74.49 10.991 74.751 10.614 74.919 10.133 L 76.137 10.133 C 75.904 10.986 75.498 11.663 74.919 12.166 C 74.35 12.669 73.673 12.92 72.889 12.92 Z M 75.017 7.707 C 74.924 6.953 74.695 6.357 74.331 5.92 C 73.967 5.472 73.486 5.248 72.889 5.248 C 72.292 5.248 71.811 5.472 71.447 5.92 C 71.083 6.357 70.854 6.953 70.761 7.707 L 75.017 7.707 Z" fill="#495650"/>
</svg>